<mxfile host="app.diagrams.net" agent="Mozilla/5.0 (Macintosh; Intel Mac OS X 10_15_7) AppleWebKit/605.1.15 (KHTML, like Gecko) Version/17.5 Safari/605.1.15" version="24.7.10">
  <diagram name="Page-1" id="b2cWNFqZZL0ne6SCtB5r">
    <mxGraphModel dx="937" dy="527" grid="0" gridSize="10" guides="1" tooltips="1" connect="1" arrows="1" fold="1" page="1" pageScale="1" pageWidth="827" pageHeight="1169" math="1" shadow="0">
      <root>
        <mxCell id="0" />
        <mxCell id="1" parent="0" />
        <mxCell id="lw4-ALwatdlcr4XSXjIa-5" value="&lt;div&gt;GPU #2&lt;/div&gt;&lt;div&gt;&lt;br&gt;&lt;/div&gt;&lt;div&gt;&lt;br&gt;&lt;/div&gt;&lt;div&gt;&lt;br&gt;&lt;/div&gt;&lt;div&gt;&lt;br&gt;&lt;/div&gt;&lt;div&gt;&lt;br&gt;&lt;/div&gt;&lt;div&gt;&lt;br&gt;&lt;/div&gt;&lt;div&gt;&lt;br&gt;&lt;/div&gt;&lt;div&gt;&lt;br&gt;&lt;/div&gt;&lt;div&gt;&lt;br&gt;&lt;/div&gt;&lt;div&gt;&lt;br&gt;&lt;/div&gt;&lt;div&gt;&lt;br&gt;&lt;/div&gt;&lt;div&gt;&lt;br&gt;&lt;/div&gt;" style="rounded=0;whiteSpace=wrap;html=1;align=left;fillColor=#b0e3e6;strokeColor=#0e8088;" vertex="1" parent="1">
          <mxGeometry x="440" y="280" width="160" height="200" as="geometry" />
        </mxCell>
        <mxCell id="lw4-ALwatdlcr4XSXjIa-1" value="&lt;div&gt;GPU #1&lt;/div&gt;&lt;div&gt;&lt;br&gt;&lt;/div&gt;&lt;div&gt;&lt;br&gt;&lt;/div&gt;&lt;div&gt;&lt;br&gt;&lt;/div&gt;&lt;div&gt;&lt;br&gt;&lt;/div&gt;&lt;div&gt;&lt;br&gt;&lt;/div&gt;&lt;div&gt;&lt;br&gt;&lt;/div&gt;&lt;div&gt;&lt;br&gt;&lt;/div&gt;&lt;div&gt;&lt;br&gt;&lt;/div&gt;&lt;div&gt;&lt;br&gt;&lt;/div&gt;&lt;div&gt;&lt;br&gt;&lt;/div&gt;&lt;div&gt;&lt;br&gt;&lt;/div&gt;&lt;div&gt;&lt;br&gt;&lt;/div&gt;" style="rounded=0;whiteSpace=wrap;html=1;align=left;fillColor=#b0e3e6;strokeColor=#0e8088;" vertex="1" parent="1">
          <mxGeometry x="160" y="280" width="160" height="200" as="geometry" />
        </mxCell>
        <mxCell id="lw4-ALwatdlcr4XSXjIa-3" value="Model Replica #1" style="rounded=1;whiteSpace=wrap;html=1;fillColor=#dae8fc;strokeColor=#6c8ebf;" vertex="1" parent="1">
          <mxGeometry x="180" y="390" width="120" height="60" as="geometry" />
        </mxCell>
        <mxCell id="lw4-ALwatdlcr4XSXjIa-4" value="Model Replica&amp;nbsp;#2" style="rounded=1;whiteSpace=wrap;html=1;fillColor=#dae8fc;strokeColor=#6c8ebf;" vertex="1" parent="1">
          <mxGeometry x="460" y="390" width="120" height="60" as="geometry" />
        </mxCell>
        <mxCell id="lw4-ALwatdlcr4XSXjIa-6" value="&lt;div style=&quot;text-align: justify;&quot;&gt;&lt;font style=&quot;font-size: 20px;&quot;&gt;+&lt;/font&gt;&lt;/div&gt;" style="ellipse;whiteSpace=wrap;html=1;aspect=fixed;" vertex="1" parent="1">
          <mxGeometry x="365" y="210" width="30" height="30" as="geometry" />
        </mxCell>
        <mxCell id="lw4-ALwatdlcr4XSXjIa-7" value="" style="endArrow=classic;html=1;rounded=0;entryX=0;entryY=0.5;entryDx=0;entryDy=0;exitX=0.5;exitY=0;exitDx=0;exitDy=0;" edge="1" parent="1" source="lw4-ALwatdlcr4XSXjIa-1" target="lw4-ALwatdlcr4XSXjIa-6">
          <mxGeometry width="50" height="50" relative="1" as="geometry">
            <mxPoint x="240" y="270" as="sourcePoint" />
            <mxPoint x="490" y="320" as="targetPoint" />
            <Array as="points">
              <mxPoint x="240" y="225" />
            </Array>
          </mxGeometry>
        </mxCell>
        <mxCell id="lw4-ALwatdlcr4XSXjIa-8" value="" style="endArrow=classic;html=1;rounded=0;entryX=0;entryY=0.5;entryDx=0;entryDy=0;exitX=0.5;exitY=0;exitDx=0;exitDy=0;" edge="1" parent="1">
          <mxGeometry width="50" height="50" relative="1" as="geometry">
            <mxPoint x="520" y="280" as="sourcePoint" />
            <mxPoint x="395" y="225" as="targetPoint" />
            <Array as="points">
              <mxPoint x="520" y="225" />
            </Array>
          </mxGeometry>
        </mxCell>
        <mxCell id="lw4-ALwatdlcr4XSXjIa-9" value="" style="endArrow=classic;html=1;rounded=0;entryX=0.5;entryY=1;entryDx=0;entryDy=0;exitX=0;exitY=0;exitDx=0;exitDy=0;" edge="1" parent="1" source="lw4-ALwatdlcr4XSXjIa-35" target="lw4-ALwatdlcr4XSXjIa-1">
          <mxGeometry width="50" height="50" relative="1" as="geometry">
            <mxPoint x="290" y="520" as="sourcePoint" />
            <mxPoint x="240" y="490" as="targetPoint" />
          </mxGeometry>
        </mxCell>
        <mxCell id="lw4-ALwatdlcr4XSXjIa-10" value="" style="endArrow=classic;html=1;rounded=0;entryX=0.5;entryY=1;entryDx=0;entryDy=0;exitX=1;exitY=0;exitDx=0;exitDy=0;" edge="1" parent="1" source="lw4-ALwatdlcr4XSXjIa-19" target="lw4-ALwatdlcr4XSXjIa-5">
          <mxGeometry width="50" height="50" relative="1" as="geometry">
            <mxPoint x="430" y="540" as="sourcePoint" />
            <mxPoint x="250" y="490" as="targetPoint" />
          </mxGeometry>
        </mxCell>
        <mxCell id="lw4-ALwatdlcr4XSXjIa-11" value="" style="endArrow=classic;html=1;rounded=0;dashed=1;dashPattern=1 1;" edge="1" parent="1">
          <mxGeometry width="50" height="50" relative="1" as="geometry">
            <mxPoint x="360" y="210" as="sourcePoint" />
            <mxPoint x="140" y="480" as="targetPoint" />
            <Array as="points">
              <mxPoint x="140" y="210" />
            </Array>
          </mxGeometry>
        </mxCell>
        <mxCell id="lw4-ALwatdlcr4XSXjIa-12" value="" style="endArrow=classic;html=1;rounded=0;dashed=1;dashPattern=1 1;" edge="1" parent="1">
          <mxGeometry width="50" height="50" relative="1" as="geometry">
            <mxPoint x="400" y="210" as="sourcePoint" />
            <mxPoint x="620" y="480" as="targetPoint" />
            <Array as="points">
              <mxPoint x="620" y="210" />
            </Array>
          </mxGeometry>
        </mxCell>
        <mxCell id="lw4-ALwatdlcr4XSXjIa-13" value="Data Loader #1" style="rounded=1;whiteSpace=wrap;html=1;fillColor=#fff2cc;strokeColor=#d6b656;" vertex="1" parent="1">
          <mxGeometry x="270" y="620" width="100" height="45" as="geometry" />
        </mxCell>
        <mxCell id="lw4-ALwatdlcr4XSXjIa-14" value="" style="endArrow=classic;html=1;rounded=0;" edge="1" parent="1">
          <mxGeometry width="50" height="50" relative="1" as="geometry">
            <mxPoint x="320.42" y="610" as="sourcePoint" />
            <mxPoint x="320" y="580" as="targetPoint" />
          </mxGeometry>
        </mxCell>
        <mxCell id="lw4-ALwatdlcr4XSXjIa-15" value="" style="endArrow=classic;html=1;rounded=0;" edge="1" parent="1">
          <mxGeometry width="50" height="50" relative="1" as="geometry">
            <mxPoint x="440.11" y="610" as="sourcePoint" />
            <mxPoint x="439.69" y="580" as="targetPoint" />
          </mxGeometry>
        </mxCell>
        <mxCell id="lw4-ALwatdlcr4XSXjIa-19" value="Mini-Batch&lt;div&gt;#(2n+1)&lt;br&gt;&lt;/div&gt;" style="rounded=1;whiteSpace=wrap;html=1;fillColor=#fff2cc;strokeColor=#d6b656;" vertex="1" parent="1">
          <mxGeometry x="400" y="520" width="80" height="50" as="geometry" />
        </mxCell>
        <mxCell id="lw4-ALwatdlcr4XSXjIa-20" value="" style="endArrow=classic;html=1;rounded=0;entryX=0.5;entryY=1;entryDx=0;entryDy=0;exitX=0.5;exitY=1;exitDx=0;exitDy=0;" edge="1" parent="1" target="lw4-ALwatdlcr4XSXjIa-3">
          <mxGeometry width="50" height="50" relative="1" as="geometry">
            <mxPoint x="239.88" y="469.9999999999999" as="sourcePoint" />
            <mxPoint x="239.88" y="440" as="targetPoint" />
          </mxGeometry>
        </mxCell>
        <mxCell id="lw4-ALwatdlcr4XSXjIa-21" value="" style="endArrow=classic;html=1;rounded=0;entryX=0.5;entryY=1;entryDx=0;entryDy=0;exitX=0.5;exitY=1;exitDx=0;exitDy=0;" edge="1" parent="1">
          <mxGeometry width="50" height="50" relative="1" as="geometry">
            <mxPoint x="519.72" y="469.9999999999999" as="sourcePoint" />
            <mxPoint x="519.8399999999999" y="450" as="targetPoint" />
          </mxGeometry>
        </mxCell>
        <mxCell id="lw4-ALwatdlcr4XSXjIa-22" value="" style="endArrow=classic;html=1;rounded=0;entryX=0.5;entryY=1;entryDx=0;entryDy=0;exitX=0.5;exitY=1;exitDx=0;exitDy=0;" edge="1" parent="1">
          <mxGeometry width="50" height="50" relative="1" as="geometry">
            <mxPoint x="239.72000000000003" y="389.9999999999999" as="sourcePoint" />
            <mxPoint x="239.83999999999992" y="370" as="targetPoint" />
          </mxGeometry>
        </mxCell>
        <mxCell id="lw4-ALwatdlcr4XSXjIa-23" value="" style="endArrow=classic;html=1;rounded=0;entryX=0.5;entryY=1;entryDx=0;entryDy=0;exitX=0.5;exitY=1;exitDx=0;exitDy=0;" edge="1" parent="1">
          <mxGeometry width="50" height="50" relative="1" as="geometry">
            <mxPoint x="519.72" y="389.9999999999999" as="sourcePoint" />
            <mxPoint x="519.8399999999999" y="370" as="targetPoint" />
          </mxGeometry>
        </mxCell>
        <mxCell id="lw4-ALwatdlcr4XSXjIa-27" value="" style="endArrow=classic;html=1;rounded=0;entryX=0.5;entryY=1;entryDx=0;entryDy=0;" edge="1" parent="1">
          <mxGeometry width="50" height="50" relative="1" as="geometry">
            <mxPoint x="239.90399999999988" y="310" as="sourcePoint" />
            <mxPoint x="239.83999999999992" y="290" as="targetPoint" />
          </mxGeometry>
        </mxCell>
        <mxCell id="lw4-ALwatdlcr4XSXjIa-29" value="&lt;span style=&quot;white-space: nowrap;&quot;&gt;Backprop&lt;/span&gt;&lt;div style=&quot;white-space: nowrap;&quot;&gt;+&lt;/div&gt;&lt;div style=&quot;white-space: nowrap;&quot;&gt;Gradients&lt;/div&gt;" style="rounded=1;whiteSpace=wrap;html=1;dashed=1;fillColor=#B0E3E6;" vertex="1" parent="1">
          <mxGeometry x="210" y="312.5" width="60" height="55" as="geometry" />
        </mxCell>
        <mxCell id="lw4-ALwatdlcr4XSXjIa-28" value="" style="endArrow=classic;html=1;rounded=0;entryX=0.5;entryY=1;entryDx=0;entryDy=0;" edge="1" parent="1">
          <mxGeometry width="50" height="50" relative="1" as="geometry">
            <mxPoint x="519.88" y="310" as="sourcePoint" />
            <mxPoint x="519.7199999999999" y="290" as="targetPoint" />
          </mxGeometry>
        </mxCell>
        <mxCell id="lw4-ALwatdlcr4XSXjIa-30" value="&lt;span style=&quot;white-space: nowrap;&quot;&gt;Backprop&lt;/span&gt;&lt;div style=&quot;white-space: nowrap;&quot;&gt;+&lt;/div&gt;&lt;div style=&quot;white-space: nowrap;&quot;&gt;Gradients&lt;/div&gt;" style="rounded=1;whiteSpace=wrap;html=1;dashed=1;fillColor=#B0E3E6;" vertex="1" parent="1">
          <mxGeometry x="490" y="312.5" width="60" height="55" as="geometry" />
        </mxCell>
        <mxCell id="lw4-ALwatdlcr4XSXjIa-31" value="Accumulate" style="text;html=1;align=center;verticalAlign=middle;resizable=0;points=[];autosize=1;strokeColor=none;fillColor=none;" vertex="1" parent="1">
          <mxGeometry x="335" y="180" width="90" height="30" as="geometry" />
        </mxCell>
        <mxCell id="lw4-ALwatdlcr4XSXjIa-32" value="&lt;font style=&quot;font-size: 10px;&quot;&gt;Update&lt;/font&gt;" style="text;html=1;align=center;verticalAlign=middle;resizable=0;points=[];autosize=1;strokeColor=none;fillColor=none;" vertex="1" parent="1">
          <mxGeometry x="140" y="180" width="60" height="30" as="geometry" />
        </mxCell>
        <mxCell id="lw4-ALwatdlcr4XSXjIa-33" value="&lt;font style=&quot;font-size: 10px;&quot;&gt;Update&lt;/font&gt;" style="text;html=1;align=center;verticalAlign=middle;resizable=0;points=[];autosize=1;strokeColor=none;fillColor=none;" vertex="1" parent="1">
          <mxGeometry x="560" y="180" width="60" height="30" as="geometry" />
        </mxCell>
        <mxCell id="lw4-ALwatdlcr4XSXjIa-34" value="Data Loader #2" style="rounded=1;whiteSpace=wrap;html=1;fillColor=#fff2cc;strokeColor=#d6b656;" vertex="1" parent="1">
          <mxGeometry x="390" y="620" width="100" height="45" as="geometry" />
        </mxCell>
        <mxCell id="lw4-ALwatdlcr4XSXjIa-35" value="Mini-Batch&lt;div&gt;#(2n)&lt;br&gt;&lt;/div&gt;" style="rounded=1;whiteSpace=wrap;html=1;fillColor=#fff2cc;strokeColor=#d6b656;" vertex="1" parent="1">
          <mxGeometry x="280" y="520" width="80" height="50" as="geometry" />
        </mxCell>
      </root>
    </mxGraphModel>
  </diagram>
</mxfile>
